<?xml version="1.0" encoding="UTF-8"?>
<svg width="500" height="500" viewBox="0 0 1080 1080" xmlns="http://www.w3.org/2000/svg">
    <!-- Define the circles as masks/cutouts -->
    <defs>
        <mask id="pieceMask">
            <!-- Start with white (show all) -->
            <rect width="1080" height="1080" fill="white"/>
            <!-- Cut out 8 circles (black = transparent/hole) -->
            <!-- Left pair -->
            <circle cx="331.55" cy="559.01" r="64.65" fill="black"/>
            <circle cx="414.33" cy="559.01" r="64.65" fill="black"/>
            <!-- Right pair -->
            <circle cx="688.86" cy="559.01" r="64.65" fill="black"/>
            <circle cx="771.64" cy="559.01" r="64.65" fill="black"/>
            <!-- Top pair -->
            <circle cx="551.49" cy="336.84" r="64.65" fill="black"/>
            <circle cx="551.49" cy="419.63" r="64.65" fill="black"/>
            <!-- Bottom pair -->
            <circle cx="551.49" cy="694.15" r="64.65" fill="black"/>
            <circle cx="551.49" cy="776.94" r="64.65" fill="black"/>
        </mask>
        
        <!-- Pattern for visual texture (optional) -->
        <pattern id="texture" patternUnits="userSpaceOnUse" width="20" height="20">
            <rect width="20" height="20" fill="#f0f0f0"/>
            <circle cx="10" cy="10" r="5" fill="#ddd"/>
        </pattern>
    </defs>
    
    <!-- Main puzzle piece with cutouts -->
    <g mask="url(#pieceMask)">
        <!-- Solid piece body (will be cut by mask) -->
        <rect x="373.83" y="381.35" width="355.32" height="355.32" 
              fill="#7E8AA2" stroke="#4A5568" stroke-width="8"/>
        
        <!-- Optional: Show the "knob" areas that would protrude in mating piece -->
        <!-- These visual guides show where this piece would connect to another -->
        <g fill="none" stroke="#2D3748" stroke-width="3" stroke-dasharray="10,5">
            <!-- Left knobs (inverse of holes) -->
            <rect x="266.9" y="494.36" width="129.43" height="129.3" rx="20"/>
            <rect x="349.68" y="494.36" width="129.43" height="129.3" rx="20"/>
            <!-- Right knobs -->
            <rect x="624.21" y="494.36" width="129.43" height="129.3" rx="20"/>
            <rect x="706.99" y="494.36" width="129.43" height="129.3" rx="20"/>
            <!-- Top knobs -->
            <rect x="486.84" y="272.19" width="129.3" height="129.43" rx="20"/>
            <rect x="486.84" y="354.98" width="129.3" height="129.43" rx="20"/>
            <!-- Bottom knobs -->
            <rect x="486.84" y="629.5" width="129.3" height="129.43" rx="20"/>
            <rect x="486.84" y="712.29" width="129.3" height="129.43" rx="20"/>
        </g>
    </g>
    
    <!-- Outline for clarity -->
    <rect x="373.83" y="381.35" width="355.32" height="355.32" 
          fill="none" stroke="#2D3748" stroke-width="4"/>
</svg>
